# xmcd
# 
# Track frame offsets:
#     150
#     19161
#     35143
#     52228
#     66457
#     83341
#     101224
#     117604
#     135179
#     150652
#     165022
# 
# Disc length: 2404
# 
# Revision: 2
# Processed by: cddbd v1.5.2PL0 Copyright (c) Steve Scherf et al.
# Submitted via: fre:ac v1.0.17
# 
DISCID=8d09620b
DTITLE=Two Door Cinema Club - Beacon
DYEAR=2012
DGENRE=Alternative
TTITLE0=Next Year
TTITLE1=Handshake
TTITLE2=Wake Up
TTITLE3=Sun
TTITLE4=Someday
TTITLE5=Sleep Alone
TTITLE6=The World Is Watching (With Valentina)
TTITLE7=Settle
TTITLE8=Spring
TTITLE9=Pyramid
TTITLE10=Beacon
EXTD=
EXTT0=
EXTT1=
EXTT2=
EXTT3=
EXTT4=
EXTT5=
EXTT6=
EXTT7=
EXTT8=
EXTT9=
EXTT10=
PLAYORDER=
